<svg height="512pt" viewBox="-35 0 512 512" width="512pt" xmlns="http://www.w3.org/2000/svg"><path d="m442.066406 104.890625-25.511718-15.78125-61.480469 99.371094c-10.785157-23.863281-31.121094-42.523438-56.097657-51.089844-3.789062-19.792969-13.75-37.910156-28.714843-51.824219-7.828125-7.285156-16.714844-13.109375-26.28125-17.351562 4.089843-6.777344 6.449219-14.714844 6.449219-23.191406 0-24.824219-20.195313-45.023438-45.023438-45.023438-24.824219 0-45.023438 20.199219-45.023438 45.023438 0 8.457031 2.347657 16.371093 6.417969 23.140624-9.609375 4.246094-18.539062 10.089844-26.402343 17.398438-14.964844 13.917969-24.921876 32.035156-28.710938 51.828125-32.914062 11.285156-57.753906 40.101563-63.332031 75.246094h-48.355469v15c0 89.246093 71.539062 162.09375 160.285156 164.214843v30.097657h-25.714844c-31.9375 0-57.921874 25.984375-57.921874 57.921875v32.128906h253.96875v-32.125c0-31.9375-25.980469-57.921875-57.921876-57.921875h-22.359374v-30.222656c87.183593-3.847657 156.933593-75.972657 156.933593-164.09375v-15h-31.859375zm-110.332031 107.75h-94.996094c-1.925781-12.152344-6.15625-23.539063-12.226562-33.714844 11.90625-10.6875 27.304687-16.660156 43.605469-16.660156 30.882812 0 56.816406 21.535156 63.617187 50.375zm-126.328125-182.640625c8.285156 0 15.023438 6.738281 15.023438 15.023438 0 8.285156-6.738282 15.023437-15.023438 15.023437s-15.023438-6.738281-15.023438-15.023437c0-8.285157 6.738282-15.023438 15.023438-15.023438zm-.074219 60.046875c27.609375 0 51.703125 17.519531 61.136719 42.242187-22.816406.386719-44.332031 8.785157-61.179688 23.582032-16.394531-14.351563-37.734374-23.1875-61.089843-23.585938 9.429687-24.722656 33.523437-42.238281 61.132812-42.238281zm-62.785156 72.21875c30.886719 0 56.816406 21.535156 63.617187 50.375h-127.234374c6.800781-28.839844 32.734374-50.375 63.617187-50.375zm158.070313 317.609375v2.125h-193.96875v-2.125c0-15.398438 12.527343-27.921875 27.921874-27.921875h138.125c15.398438 0 27.921876 12.523437 27.921876 27.921875zm-110.332032-57.921875v-30.050781h30.050782v30.050781zm52.71875-60.050781h-78.738281c-68.964844 0-125.949219-52.265625-133.433594-119.265625h345.605469c-7.484375 67.003906-64.472656 119.265625-133.433594 119.265625zm0 0"/></svg>